<mxfile host="app.diagrams.net" agent="Mozilla/5.0 (Windows NT 10.0; Win64; x64) AppleWebKit/537.36 (KHTML, like Gecko) Chrome/134.0.0.0 YaBrowser/25.4.0.0 Safari/537.36" version="27.0.6">
  <diagram name="Страница — 1" id="EL8p-KrftPDtDiHfVPIN">
    <mxGraphModel dx="1564" dy="1021" grid="1" gridSize="10" guides="1" tooltips="1" connect="1" arrows="1" fold="1" page="1" pageScale="1" pageWidth="1169" pageHeight="827" math="0" shadow="0">
      <root>
        <mxCell id="0" />
        <mxCell id="1" parent="0" />
        <mxCell id="QzJGNxjtanzAwtywDty2-134" value="" style="rounded=0;whiteSpace=wrap;html=1;" vertex="1" parent="1">
          <mxGeometry width="880" height="800" as="geometry" />
        </mxCell>
        <mxCell id="QzJGNxjtanzAwtywDty2-37" value="" style="endArrow=none;dashed=1;html=1;rounded=0;entryX=0.5;entryY=1;entryDx=0;entryDy=0;exitX=0.5;exitY=1;exitDx=0;exitDy=0;" edge="1" parent="1" source="QzJGNxjtanzAwtywDty2-74" target="QzJGNxjtanzAwtywDty2-2">
          <mxGeometry width="50" height="50" relative="1" as="geometry">
            <mxPoint x="420" y="680" as="sourcePoint" />
            <mxPoint x="420" y="260" as="targetPoint" />
          </mxGeometry>
        </mxCell>
        <mxCell id="QzJGNxjtanzAwtywDty2-29" value="" style="endArrow=none;dashed=1;html=1;rounded=0;exitX=0.5;exitY=1;exitDx=0;exitDy=0;entryX=0.5;entryY=1;entryDx=0;entryDy=0;" edge="1" parent="1" source="QzJGNxjtanzAwtywDty2-23">
          <mxGeometry width="50" height="50" relative="1" as="geometry">
            <mxPoint x="139.47" y="690" as="sourcePoint" />
            <mxPoint x="139.47" y="290" as="targetPoint" />
          </mxGeometry>
        </mxCell>
        <mxCell id="QzJGNxjtanzAwtywDty2-30" value="" style="endArrow=none;dashed=1;html=1;rounded=0;exitX=0.5;exitY=1;exitDx=0;exitDy=0;entryX=0.5;entryY=1;entryDx=0;entryDy=0;" edge="1" parent="1" source="QzJGNxjtanzAwtywDty2-72">
          <mxGeometry width="50" height="50" relative="1" as="geometry">
            <mxPoint x="699.5" y="480" as="sourcePoint" />
            <mxPoint x="699.5" y="80" as="targetPoint" />
          </mxGeometry>
        </mxCell>
        <mxCell id="QzJGNxjtanzAwtywDty2-15" value="" style="endArrow=none;dashed=1;html=1;rounded=0;entryX=0.5;entryY=1;entryDx=0;entryDy=0;" edge="1" parent="1" target="QzJGNxjtanzAwtywDty2-1">
          <mxGeometry width="50" height="50" relative="1" as="geometry">
            <mxPoint x="140" y="190" as="sourcePoint" />
            <mxPoint x="610" y="400" as="targetPoint" />
          </mxGeometry>
        </mxCell>
        <mxCell id="QzJGNxjtanzAwtywDty2-1" value="Гость" style="rounded=0;whiteSpace=wrap;html=1;" vertex="1" parent="1">
          <mxGeometry x="80" y="50" width="120" height="30" as="geometry" />
        </mxCell>
        <mxCell id="QzJGNxjtanzAwtywDty2-2" value="Система" style="rounded=0;whiteSpace=wrap;html=1;" vertex="1" parent="1">
          <mxGeometry x="360" y="50" width="120" height="30" as="geometry" />
        </mxCell>
        <mxCell id="QzJGNxjtanzAwtywDty2-3" value="Администратор" style="rounded=0;whiteSpace=wrap;html=1;" vertex="1" parent="1">
          <mxGeometry x="640" y="50" width="120" height="30" as="geometry" />
        </mxCell>
        <mxCell id="QzJGNxjtanzAwtywDty2-5" value="" style="rounded=0;whiteSpace=wrap;html=1;" vertex="1" parent="1">
          <mxGeometry x="135" y="120" width="10" height="40" as="geometry" />
        </mxCell>
        <mxCell id="QzJGNxjtanzAwtywDty2-10" value="" style="rounded=0;whiteSpace=wrap;html=1;" vertex="1" parent="1">
          <mxGeometry x="415" y="120" width="10" height="40" as="geometry" />
        </mxCell>
        <mxCell id="QzJGNxjtanzAwtywDty2-11" value="" style="rounded=0;whiteSpace=wrap;html=1;" vertex="1" parent="1">
          <mxGeometry x="415" y="200" width="10" height="40" as="geometry" />
        </mxCell>
        <mxCell id="QzJGNxjtanzAwtywDty2-12" value="" style="rounded=0;whiteSpace=wrap;html=1;" vertex="1" parent="1">
          <mxGeometry x="415" y="320" width="10" height="40" as="geometry" />
        </mxCell>
        <mxCell id="QzJGNxjtanzAwtywDty2-13" value="" style="rounded=0;whiteSpace=wrap;html=1;" vertex="1" parent="1">
          <mxGeometry x="415" y="400" width="10" height="40" as="geometry" />
        </mxCell>
        <mxCell id="QzJGNxjtanzAwtywDty2-14" value="" style="rounded=0;whiteSpace=wrap;html=1;" vertex="1" parent="1">
          <mxGeometry x="415" y="480" width="10" height="40" as="geometry" />
        </mxCell>
        <mxCell id="QzJGNxjtanzAwtywDty2-18" value="Пользователь" style="rounded=0;whiteSpace=wrap;html=1;" vertex="1" parent="1">
          <mxGeometry x="80" y="260" width="120" height="30" as="geometry" />
        </mxCell>
        <mxCell id="QzJGNxjtanzAwtywDty2-19" value="" style="rounded=0;whiteSpace=wrap;html=1;" vertex="1" parent="1">
          <mxGeometry x="135" y="320" width="10" height="40" as="geometry" />
        </mxCell>
        <mxCell id="QzJGNxjtanzAwtywDty2-20" value="" style="rounded=0;whiteSpace=wrap;html=1;" vertex="1" parent="1">
          <mxGeometry x="135" y="400" width="10" height="40" as="geometry" />
        </mxCell>
        <mxCell id="QzJGNxjtanzAwtywDty2-21" value="" style="rounded=0;whiteSpace=wrap;html=1;" vertex="1" parent="1">
          <mxGeometry x="135" y="480" width="10" height="40" as="geometry" />
        </mxCell>
        <mxCell id="QzJGNxjtanzAwtywDty2-22" value="" style="rounded=0;whiteSpace=wrap;html=1;" vertex="1" parent="1">
          <mxGeometry x="135" y="560" width="10" height="40" as="geometry" />
        </mxCell>
        <mxCell id="QzJGNxjtanzAwtywDty2-23" value="" style="rounded=0;whiteSpace=wrap;html=1;" vertex="1" parent="1">
          <mxGeometry x="135" y="640" width="10" height="40" as="geometry" />
        </mxCell>
        <mxCell id="QzJGNxjtanzAwtywDty2-24" value="" style="rounded=0;whiteSpace=wrap;html=1;" vertex="1" parent="1">
          <mxGeometry x="695" y="120" width="10" height="40" as="geometry" />
        </mxCell>
        <mxCell id="QzJGNxjtanzAwtywDty2-25" value="" style="rounded=0;whiteSpace=wrap;html=1;" vertex="1" parent="1">
          <mxGeometry x="695" y="200" width="10" height="40" as="geometry" />
        </mxCell>
        <mxCell id="QzJGNxjtanzAwtywDty2-26" value="" style="rounded=0;whiteSpace=wrap;html=1;" vertex="1" parent="1">
          <mxGeometry x="695" y="320" width="10" height="40" as="geometry" />
        </mxCell>
        <mxCell id="QzJGNxjtanzAwtywDty2-27" value="" style="rounded=0;whiteSpace=wrap;html=1;" vertex="1" parent="1">
          <mxGeometry x="695" y="400" width="10" height="40" as="geometry" />
        </mxCell>
        <mxCell id="QzJGNxjtanzAwtywDty2-28" value="" style="rounded=0;whiteSpace=wrap;html=1;" vertex="1" parent="1">
          <mxGeometry x="695" y="480" width="10" height="40" as="geometry" />
        </mxCell>
        <mxCell id="QzJGNxjtanzAwtywDty2-32" value="" style="shape=umlDestroy;whiteSpace=wrap;html=1;strokeWidth=3;targetShapes=umlLifeline;" vertex="1" parent="1">
          <mxGeometry x="125" y="190" width="30" height="30" as="geometry" />
        </mxCell>
        <mxCell id="QzJGNxjtanzAwtywDty2-33" value="" style="rounded=0;whiteSpace=wrap;html=1;" vertex="1" parent="1">
          <mxGeometry x="415" y="560" width="10" height="40" as="geometry" />
        </mxCell>
        <mxCell id="QzJGNxjtanzAwtywDty2-34" value="" style="rounded=0;whiteSpace=wrap;html=1;" vertex="1" parent="1">
          <mxGeometry x="415" y="640" width="10" height="40" as="geometry" />
        </mxCell>
        <mxCell id="QzJGNxjtanzAwtywDty2-39" value="" style="endArrow=classic;html=1;rounded=0;exitX=1;exitY=0.25;exitDx=0;exitDy=0;entryX=0;entryY=0.25;entryDx=0;entryDy=0;" edge="1" parent="1" source="QzJGNxjtanzAwtywDty2-5" target="QzJGNxjtanzAwtywDty2-10">
          <mxGeometry width="50" height="50" relative="1" as="geometry">
            <mxPoint x="460" y="430" as="sourcePoint" />
            <mxPoint x="510" y="380" as="targetPoint" />
          </mxGeometry>
        </mxCell>
        <mxCell id="QzJGNxjtanzAwtywDty2-40" value="" style="endArrow=classic;html=1;rounded=0;exitX=1;exitY=0.25;exitDx=0;exitDy=0;entryX=0;entryY=0.25;entryDx=0;entryDy=0;" edge="1" parent="1">
          <mxGeometry width="50" height="50" relative="1" as="geometry">
            <mxPoint x="145" y="330" as="sourcePoint" />
            <mxPoint x="415" y="330" as="targetPoint" />
          </mxGeometry>
        </mxCell>
        <mxCell id="QzJGNxjtanzAwtywDty2-41" value="" style="endArrow=classic;html=1;rounded=0;exitX=1;exitY=0.25;exitDx=0;exitDy=0;entryX=0;entryY=0.25;entryDx=0;entryDy=0;" edge="1" parent="1">
          <mxGeometry width="50" height="50" relative="1" as="geometry">
            <mxPoint x="145" y="413" as="sourcePoint" />
            <mxPoint x="415" y="413" as="targetPoint" />
          </mxGeometry>
        </mxCell>
        <mxCell id="QzJGNxjtanzAwtywDty2-42" value="" style="endArrow=classic;html=1;rounded=0;exitX=1;exitY=0.25;exitDx=0;exitDy=0;entryX=0;entryY=0.25;entryDx=0;entryDy=0;" edge="1" parent="1">
          <mxGeometry width="50" height="50" relative="1" as="geometry">
            <mxPoint x="145" y="490" as="sourcePoint" />
            <mxPoint x="415" y="490" as="targetPoint" />
          </mxGeometry>
        </mxCell>
        <mxCell id="QzJGNxjtanzAwtywDty2-43" value="" style="endArrow=classic;html=1;rounded=0;exitX=1;exitY=0.25;exitDx=0;exitDy=0;entryX=0;entryY=0.25;entryDx=0;entryDy=0;" edge="1" parent="1">
          <mxGeometry width="50" height="50" relative="1" as="geometry">
            <mxPoint x="145" y="570" as="sourcePoint" />
            <mxPoint x="415" y="570" as="targetPoint" />
          </mxGeometry>
        </mxCell>
        <mxCell id="QzJGNxjtanzAwtywDty2-44" value="" style="endArrow=classic;html=1;rounded=0;exitX=1;exitY=0.25;exitDx=0;exitDy=0;entryX=0;entryY=0.25;entryDx=0;entryDy=0;" edge="1" parent="1">
          <mxGeometry width="50" height="50" relative="1" as="geometry">
            <mxPoint x="145" y="650" as="sourcePoint" />
            <mxPoint x="415" y="650" as="targetPoint" />
          </mxGeometry>
        </mxCell>
        <mxCell id="QzJGNxjtanzAwtywDty2-45" value="" style="endArrow=classic;html=1;rounded=0;entryX=1;entryY=0.75;entryDx=0;entryDy=0;exitX=0;exitY=0.75;exitDx=0;exitDy=0;dashed=1;" edge="1" parent="1" source="QzJGNxjtanzAwtywDty2-10" target="QzJGNxjtanzAwtywDty2-5">
          <mxGeometry width="50" height="50" relative="1" as="geometry">
            <mxPoint x="460" y="430" as="sourcePoint" />
            <mxPoint x="510" y="380" as="targetPoint" />
          </mxGeometry>
        </mxCell>
        <mxCell id="QzJGNxjtanzAwtywDty2-46" value="" style="endArrow=classic;html=1;rounded=0;entryX=1;entryY=0.75;entryDx=0;entryDy=0;exitX=0;exitY=0.75;exitDx=0;exitDy=0;dashed=1;" edge="1" parent="1">
          <mxGeometry width="50" height="50" relative="1" as="geometry">
            <mxPoint x="415" y="350" as="sourcePoint" />
            <mxPoint x="145" y="350" as="targetPoint" />
          </mxGeometry>
        </mxCell>
        <mxCell id="QzJGNxjtanzAwtywDty2-47" value="" style="endArrow=classic;html=1;rounded=0;entryX=1;entryY=0.75;entryDx=0;entryDy=0;exitX=0;exitY=0.75;exitDx=0;exitDy=0;dashed=1;" edge="1" parent="1">
          <mxGeometry width="50" height="50" relative="1" as="geometry">
            <mxPoint x="415" y="430" as="sourcePoint" />
            <mxPoint x="145" y="430" as="targetPoint" />
          </mxGeometry>
        </mxCell>
        <mxCell id="QzJGNxjtanzAwtywDty2-48" value="" style="endArrow=classic;html=1;rounded=0;entryX=1;entryY=0.75;entryDx=0;entryDy=0;exitX=0;exitY=0.75;exitDx=0;exitDy=0;dashed=1;" edge="1" parent="1">
          <mxGeometry width="50" height="50" relative="1" as="geometry">
            <mxPoint x="415" y="510" as="sourcePoint" />
            <mxPoint x="145" y="510" as="targetPoint" />
          </mxGeometry>
        </mxCell>
        <mxCell id="QzJGNxjtanzAwtywDty2-49" value="" style="endArrow=classic;html=1;rounded=0;entryX=1;entryY=0.75;entryDx=0;entryDy=0;exitX=0;exitY=0.75;exitDx=0;exitDy=0;dashed=1;" edge="1" parent="1">
          <mxGeometry width="50" height="50" relative="1" as="geometry">
            <mxPoint x="415" y="590" as="sourcePoint" />
            <mxPoint x="145" y="590" as="targetPoint" />
          </mxGeometry>
        </mxCell>
        <mxCell id="QzJGNxjtanzAwtywDty2-50" value="" style="endArrow=classic;html=1;rounded=0;entryX=1;entryY=0.75;entryDx=0;entryDy=0;exitX=0;exitY=0.75;exitDx=0;exitDy=0;dashed=1;" edge="1" parent="1">
          <mxGeometry width="50" height="50" relative="1" as="geometry">
            <mxPoint x="415" y="670" as="sourcePoint" />
            <mxPoint x="145" y="670" as="targetPoint" />
          </mxGeometry>
        </mxCell>
        <mxCell id="QzJGNxjtanzAwtywDty2-51" value="" style="endArrow=classic;html=1;rounded=0;entryX=1;entryY=0.75;entryDx=0;entryDy=0;exitX=0;exitY=0.75;exitDx=0;exitDy=0;" edge="1" parent="1">
          <mxGeometry width="50" height="50" relative="1" as="geometry">
            <mxPoint x="695" y="130" as="sourcePoint" />
            <mxPoint x="425" y="130" as="targetPoint" />
          </mxGeometry>
        </mxCell>
        <mxCell id="QzJGNxjtanzAwtywDty2-52" value="" style="endArrow=classic;html=1;rounded=0;exitX=1;exitY=0.25;exitDx=0;exitDy=0;entryX=0;entryY=0.25;entryDx=0;entryDy=0;dashed=1;" edge="1" parent="1">
          <mxGeometry width="50" height="50" relative="1" as="geometry">
            <mxPoint x="425" y="150" as="sourcePoint" />
            <mxPoint x="695" y="150" as="targetPoint" />
          </mxGeometry>
        </mxCell>
        <mxCell id="QzJGNxjtanzAwtywDty2-53" value="&lt;font style=&quot;font-size: 10px;&quot;&gt;Регистрация&lt;/font&gt;" style="text;html=1;align=center;verticalAlign=middle;whiteSpace=wrap;rounded=0;" vertex="1" parent="1">
          <mxGeometry x="240" y="110" width="60" height="30" as="geometry" />
        </mxCell>
        <mxCell id="QzJGNxjtanzAwtywDty2-55" value="&lt;font style=&quot;font-size: 10px;&quot;&gt;Успешная регистрация&lt;/font&gt;" style="text;html=1;align=center;verticalAlign=middle;whiteSpace=wrap;rounded=0;" vertex="1" parent="1">
          <mxGeometry x="205" y="140" width="140" height="30" as="geometry" />
        </mxCell>
        <mxCell id="QzJGNxjtanzAwtywDty2-56" value="&lt;font style=&quot;font-size: 10px;&quot;&gt;Авторизация&lt;/font&gt;" style="text;html=1;align=center;verticalAlign=middle;whiteSpace=wrap;rounded=0;" vertex="1" parent="1">
          <mxGeometry x="525" y="110" width="60" height="30" as="geometry" />
        </mxCell>
        <mxCell id="QzJGNxjtanzAwtywDty2-57" value="&lt;font style=&quot;font-size: 10px;&quot;&gt;Успешная авторизация&lt;/font&gt;" style="text;html=1;align=center;verticalAlign=middle;whiteSpace=wrap;rounded=0;" vertex="1" parent="1">
          <mxGeometry x="480" y="140" width="150" height="30" as="geometry" />
        </mxCell>
        <mxCell id="QzJGNxjtanzAwtywDty2-58" value="&lt;font style=&quot;font-size: 10px;&quot;&gt;Авторизация&lt;/font&gt;" style="text;html=1;align=center;verticalAlign=middle;whiteSpace=wrap;rounded=0;" vertex="1" parent="1">
          <mxGeometry x="240" y="310" width="60" height="30" as="geometry" />
        </mxCell>
        <mxCell id="QzJGNxjtanzAwtywDty2-59" value="&lt;font style=&quot;font-size: 10px;&quot;&gt;Успешная авторизация&lt;/font&gt;" style="text;html=1;align=center;verticalAlign=middle;whiteSpace=wrap;rounded=0;" vertex="1" parent="1">
          <mxGeometry x="195" y="340" width="150" height="30" as="geometry" />
        </mxCell>
        <mxCell id="QzJGNxjtanzAwtywDty2-61" value="&lt;font style=&quot;font-size: 10px;&quot;&gt;Запрос на запись на турнир&lt;/font&gt;" style="text;html=1;align=center;verticalAlign=middle;whiteSpace=wrap;rounded=0;" vertex="1" parent="1">
          <mxGeometry x="195" y="390" width="150" height="30" as="geometry" />
        </mxCell>
        <mxCell id="QzJGNxjtanzAwtywDty2-63" value="&lt;font style=&quot;font-size: 10px;&quot;&gt;Успешная запись на турнир&lt;/font&gt;" style="text;html=1;align=center;verticalAlign=middle;whiteSpace=wrap;rounded=0;" vertex="1" parent="1">
          <mxGeometry x="200" y="420" width="150" height="30" as="geometry" />
        </mxCell>
        <mxCell id="QzJGNxjtanzAwtywDty2-64" value="&lt;font style=&quot;font-size: 10px;&quot;&gt;Запрос на просмотр турнирной таблицы&lt;/font&gt;" style="text;html=1;align=center;verticalAlign=middle;whiteSpace=wrap;rounded=0;" vertex="1" parent="1">
          <mxGeometry x="190" y="470" width="190" height="30" as="geometry" />
        </mxCell>
        <mxCell id="QzJGNxjtanzAwtywDty2-65" value="&lt;span style=&quot;font-size: 10px;&quot;&gt;Успешный вывод данных&lt;/span&gt;" style="text;html=1;align=center;verticalAlign=middle;whiteSpace=wrap;rounded=0;" vertex="1" parent="1">
          <mxGeometry x="195" y="500" width="150" height="30" as="geometry" />
        </mxCell>
        <mxCell id="QzJGNxjtanzAwtywDty2-66" value="&lt;font style=&quot;font-size: 10px;&quot;&gt;Запрос на настройку личного кабинета&lt;/font&gt;" style="text;html=1;align=center;verticalAlign=middle;whiteSpace=wrap;rounded=0;" vertex="1" parent="1">
          <mxGeometry x="145" y="550" width="260" height="30" as="geometry" />
        </mxCell>
        <mxCell id="QzJGNxjtanzAwtywDty2-67" value="&lt;font style=&quot;font-size: 10px;&quot;&gt;Успешное выполнение запроса&lt;/font&gt;" style="text;html=1;align=center;verticalAlign=middle;whiteSpace=wrap;rounded=0;" vertex="1" parent="1">
          <mxGeometry x="145" y="580" width="260" height="30" as="geometry" />
        </mxCell>
        <mxCell id="QzJGNxjtanzAwtywDty2-68" value="&lt;span style=&quot;font-size: 10px;&quot;&gt;Запрос на создание Excel таблицы&lt;/span&gt;" style="text;html=1;align=center;verticalAlign=middle;whiteSpace=wrap;rounded=0;" vertex="1" parent="1">
          <mxGeometry x="150" y="630" width="260" height="30" as="geometry" />
        </mxCell>
        <mxCell id="QzJGNxjtanzAwtywDty2-69" value="&lt;span style=&quot;font-size: 10px;&quot;&gt;Успешное создание Excel таблицы&lt;/span&gt;" style="text;html=1;align=center;verticalAlign=middle;whiteSpace=wrap;rounded=0;" vertex="1" parent="1">
          <mxGeometry x="140" y="660" width="260" height="30" as="geometry" />
        </mxCell>
        <mxCell id="QzJGNxjtanzAwtywDty2-70" value="" style="rounded=0;whiteSpace=wrap;html=1;" vertex="1" parent="1">
          <mxGeometry x="695" y="560" width="10" height="40" as="geometry" />
        </mxCell>
        <mxCell id="QzJGNxjtanzAwtywDty2-71" value="" style="rounded=0;whiteSpace=wrap;html=1;" vertex="1" parent="1">
          <mxGeometry x="695" y="640" width="10" height="40" as="geometry" />
        </mxCell>
        <mxCell id="QzJGNxjtanzAwtywDty2-72" value="" style="rounded=0;whiteSpace=wrap;html=1;" vertex="1" parent="1">
          <mxGeometry x="695" y="720" width="10" height="40" as="geometry" />
        </mxCell>
        <mxCell id="QzJGNxjtanzAwtywDty2-74" value="" style="rounded=0;whiteSpace=wrap;html=1;" vertex="1" parent="1">
          <mxGeometry x="415" y="720" width="10" height="40" as="geometry" />
        </mxCell>
        <mxCell id="QzJGNxjtanzAwtywDty2-75" value="" style="endArrow=classic;html=1;rounded=0;entryX=1;entryY=0.75;entryDx=0;entryDy=0;exitX=0;exitY=0.75;exitDx=0;exitDy=0;" edge="1" parent="1">
          <mxGeometry width="50" height="50" relative="1" as="geometry">
            <mxPoint x="695" y="210" as="sourcePoint" />
            <mxPoint x="425" y="210" as="targetPoint" />
          </mxGeometry>
        </mxCell>
        <mxCell id="QzJGNxjtanzAwtywDty2-76" value="" style="endArrow=classic;html=1;rounded=0;entryX=1;entryY=0.75;entryDx=0;entryDy=0;exitX=0;exitY=0.75;exitDx=0;exitDy=0;" edge="1" parent="1">
          <mxGeometry width="50" height="50" relative="1" as="geometry">
            <mxPoint x="695" y="330" as="sourcePoint" />
            <mxPoint x="425" y="330" as="targetPoint" />
          </mxGeometry>
        </mxCell>
        <mxCell id="QzJGNxjtanzAwtywDty2-77" value="" style="endArrow=classic;html=1;rounded=0;entryX=1;entryY=0.75;entryDx=0;entryDy=0;exitX=0;exitY=0.75;exitDx=0;exitDy=0;" edge="1" parent="1">
          <mxGeometry width="50" height="50" relative="1" as="geometry">
            <mxPoint x="695" y="413" as="sourcePoint" />
            <mxPoint x="425" y="413" as="targetPoint" />
          </mxGeometry>
        </mxCell>
        <mxCell id="QzJGNxjtanzAwtywDty2-78" value="" style="endArrow=classic;html=1;rounded=0;entryX=1;entryY=0.75;entryDx=0;entryDy=0;exitX=0;exitY=0.75;exitDx=0;exitDy=0;" edge="1" parent="1">
          <mxGeometry width="50" height="50" relative="1" as="geometry">
            <mxPoint x="695" y="490" as="sourcePoint" />
            <mxPoint x="425" y="490" as="targetPoint" />
          </mxGeometry>
        </mxCell>
        <mxCell id="QzJGNxjtanzAwtywDty2-79" value="" style="endArrow=classic;html=1;rounded=0;entryX=1;entryY=0.75;entryDx=0;entryDy=0;exitX=0;exitY=0.75;exitDx=0;exitDy=0;" edge="1" parent="1">
          <mxGeometry width="50" height="50" relative="1" as="geometry">
            <mxPoint x="695" y="570" as="sourcePoint" />
            <mxPoint x="425" y="570" as="targetPoint" />
          </mxGeometry>
        </mxCell>
        <mxCell id="QzJGNxjtanzAwtywDty2-80" value="" style="endArrow=classic;html=1;rounded=0;entryX=1;entryY=0.75;entryDx=0;entryDy=0;exitX=0;exitY=0.75;exitDx=0;exitDy=0;" edge="1" parent="1">
          <mxGeometry width="50" height="50" relative="1" as="geometry">
            <mxPoint x="695" y="650" as="sourcePoint" />
            <mxPoint x="425" y="650" as="targetPoint" />
          </mxGeometry>
        </mxCell>
        <mxCell id="QzJGNxjtanzAwtywDty2-81" value="" style="endArrow=classic;html=1;rounded=0;entryX=1;entryY=0.75;entryDx=0;entryDy=0;exitX=0;exitY=0.75;exitDx=0;exitDy=0;" edge="1" parent="1">
          <mxGeometry width="50" height="50" relative="1" as="geometry">
            <mxPoint x="695" y="730" as="sourcePoint" />
            <mxPoint x="425" y="730" as="targetPoint" />
          </mxGeometry>
        </mxCell>
        <mxCell id="QzJGNxjtanzAwtywDty2-82" value="" style="endArrow=classic;html=1;rounded=0;exitX=1;exitY=0.25;exitDx=0;exitDy=0;entryX=0;entryY=0.25;entryDx=0;entryDy=0;dashed=1;" edge="1" parent="1">
          <mxGeometry width="50" height="50" relative="1" as="geometry">
            <mxPoint x="425" y="230" as="sourcePoint" />
            <mxPoint x="695" y="230" as="targetPoint" />
          </mxGeometry>
        </mxCell>
        <mxCell id="QzJGNxjtanzAwtywDty2-83" value="" style="endArrow=classic;html=1;rounded=0;exitX=1;exitY=0.25;exitDx=0;exitDy=0;entryX=0;entryY=0.25;entryDx=0;entryDy=0;dashed=1;" edge="1" parent="1">
          <mxGeometry width="50" height="50" relative="1" as="geometry">
            <mxPoint x="425" y="350" as="sourcePoint" />
            <mxPoint x="695" y="350" as="targetPoint" />
          </mxGeometry>
        </mxCell>
        <mxCell id="QzJGNxjtanzAwtywDty2-84" value="" style="endArrow=classic;html=1;rounded=0;exitX=1;exitY=0.25;exitDx=0;exitDy=0;entryX=0;entryY=0.25;entryDx=0;entryDy=0;dashed=1;" edge="1" parent="1">
          <mxGeometry width="50" height="50" relative="1" as="geometry">
            <mxPoint x="425" y="430" as="sourcePoint" />
            <mxPoint x="695" y="430" as="targetPoint" />
          </mxGeometry>
        </mxCell>
        <mxCell id="QzJGNxjtanzAwtywDty2-85" value="" style="endArrow=classic;html=1;rounded=0;exitX=1;exitY=0.25;exitDx=0;exitDy=0;entryX=0;entryY=0.25;entryDx=0;entryDy=0;dashed=1;" edge="1" parent="1">
          <mxGeometry width="50" height="50" relative="1" as="geometry">
            <mxPoint x="425" y="510" as="sourcePoint" />
            <mxPoint x="695" y="510" as="targetPoint" />
          </mxGeometry>
        </mxCell>
        <mxCell id="QzJGNxjtanzAwtywDty2-86" value="" style="endArrow=classic;html=1;rounded=0;exitX=1;exitY=0.25;exitDx=0;exitDy=0;entryX=0;entryY=0.25;entryDx=0;entryDy=0;dashed=1;" edge="1" parent="1">
          <mxGeometry width="50" height="50" relative="1" as="geometry">
            <mxPoint x="425" y="590" as="sourcePoint" />
            <mxPoint x="695" y="590" as="targetPoint" />
          </mxGeometry>
        </mxCell>
        <mxCell id="QzJGNxjtanzAwtywDty2-87" value="" style="endArrow=classic;html=1;rounded=0;exitX=1;exitY=0.25;exitDx=0;exitDy=0;entryX=0;entryY=0.25;entryDx=0;entryDy=0;dashed=1;" edge="1" parent="1">
          <mxGeometry width="50" height="50" relative="1" as="geometry">
            <mxPoint x="425" y="670" as="sourcePoint" />
            <mxPoint x="695" y="670" as="targetPoint" />
          </mxGeometry>
        </mxCell>
        <mxCell id="QzJGNxjtanzAwtywDty2-88" value="" style="endArrow=classic;html=1;rounded=0;exitX=1;exitY=0.25;exitDx=0;exitDy=0;entryX=0;entryY=0.25;entryDx=0;entryDy=0;dashed=1;" edge="1" parent="1">
          <mxGeometry width="50" height="50" relative="1" as="geometry">
            <mxPoint x="425" y="750" as="sourcePoint" />
            <mxPoint x="695" y="750" as="targetPoint" />
          </mxGeometry>
        </mxCell>
        <mxCell id="QzJGNxjtanzAwtywDty2-90" value="&lt;font style=&quot;font-size: 10px;&quot;&gt;Запрос на добавление пользователя&lt;/font&gt;" style="text;html=1;align=center;verticalAlign=middle;whiteSpace=wrap;rounded=0;" vertex="1" parent="1">
          <mxGeometry x="470" y="190" width="180" height="30" as="geometry" />
        </mxCell>
        <mxCell id="QzJGNxjtanzAwtywDty2-91" value="&lt;span style=&quot;font-size: 10px;&quot;&gt;Успешное добавление пользователя в БД&lt;/span&gt;" style="text;html=1;align=center;verticalAlign=middle;whiteSpace=wrap;rounded=0;" vertex="1" parent="1">
          <mxGeometry x="455" y="220" width="210" height="30" as="geometry" />
        </mxCell>
        <mxCell id="QzJGNxjtanzAwtywDty2-95" value="&lt;font style=&quot;font-size: 10px;&quot;&gt;Запрос на удаление пользователя&lt;/font&gt;" style="text;html=1;align=center;verticalAlign=middle;whiteSpace=wrap;rounded=0;" vertex="1" parent="1">
          <mxGeometry x="465" y="310" width="180" height="30" as="geometry" />
        </mxCell>
        <mxCell id="QzJGNxjtanzAwtywDty2-97" value="&lt;font style=&quot;font-size: 10px;&quot;&gt;Успешное удаление пользователя из БД&lt;/font&gt;" style="text;html=1;align=center;verticalAlign=middle;whiteSpace=wrap;rounded=0;" vertex="1" parent="1">
          <mxGeometry x="455" y="340" width="205" height="30" as="geometry" />
        </mxCell>
        <mxCell id="QzJGNxjtanzAwtywDty2-98" value="&lt;span style=&quot;font-size: 10px;&quot;&gt;Запрос на редактирование данных пользователя&lt;/span&gt;" style="text;html=1;align=center;verticalAlign=middle;whiteSpace=wrap;rounded=0;" vertex="1" parent="1">
          <mxGeometry x="435" y="390" width="250" height="30" as="geometry" />
        </mxCell>
        <mxCell id="QzJGNxjtanzAwtywDty2-99" value="&lt;span style=&quot;font-size: 10px;&quot;&gt;Успешное изменение данных пользователя в БД&lt;/span&gt;" style="text;html=1;align=center;verticalAlign=middle;whiteSpace=wrap;rounded=0;" vertex="1" parent="1">
          <mxGeometry x="435" y="420" width="250" height="30" as="geometry" />
        </mxCell>
        <mxCell id="QzJGNxjtanzAwtywDty2-100" value="&lt;span style=&quot;font-size: 10px;&quot;&gt;Запрос на добавление турнира&lt;/span&gt;" style="text;html=1;align=center;verticalAlign=middle;whiteSpace=wrap;rounded=0;" vertex="1" parent="1">
          <mxGeometry x="425" y="470" width="250" height="30" as="geometry" />
        </mxCell>
        <mxCell id="QzJGNxjtanzAwtywDty2-101" value="&lt;span style=&quot;font-size: 10px;&quot;&gt;Запрос на удаление турнира&lt;/span&gt;" style="text;html=1;align=center;verticalAlign=middle;whiteSpace=wrap;rounded=0;" vertex="1" parent="1">
          <mxGeometry x="430" y="550" width="250" height="30" as="geometry" />
        </mxCell>
        <mxCell id="QzJGNxjtanzAwtywDty2-102" value="&lt;span style=&quot;font-size: 10px;&quot;&gt;Запрос на редактирование информации турнира&lt;/span&gt;" style="text;html=1;align=center;verticalAlign=middle;whiteSpace=wrap;rounded=0;" vertex="1" parent="1">
          <mxGeometry x="435" y="630" width="250" height="30" as="geometry" />
        </mxCell>
        <mxCell id="QzJGNxjtanzAwtywDty2-103" value="&lt;span style=&quot;font-size: 10px;&quot;&gt;Запрос на создание Excel таблицы&lt;/span&gt;" style="text;html=1;align=center;verticalAlign=middle;whiteSpace=wrap;rounded=0;" vertex="1" parent="1">
          <mxGeometry x="435" y="710" width="250" height="30" as="geometry" />
        </mxCell>
        <mxCell id="QzJGNxjtanzAwtywDty2-104" value="&lt;span style=&quot;font-size: 10px;&quot;&gt;Успешное изменение данных турнира в БД&lt;/span&gt;" style="text;html=1;align=center;verticalAlign=middle;whiteSpace=wrap;rounded=0;" vertex="1" parent="1">
          <mxGeometry x="425" y="660" width="250" height="30" as="geometry" />
        </mxCell>
        <mxCell id="QzJGNxjtanzAwtywDty2-105" value="&lt;font style=&quot;font-size: 10px;&quot;&gt;Успешное удаление турнира из БД&lt;/font&gt;" style="text;html=1;align=center;verticalAlign=middle;whiteSpace=wrap;rounded=0;" vertex="1" parent="1">
          <mxGeometry x="465" y="580" width="180" height="30" as="geometry" />
        </mxCell>
        <mxCell id="QzJGNxjtanzAwtywDty2-106" value="&lt;span style=&quot;font-size: 10px;&quot;&gt;Успешное добавление турнира в БД&lt;/span&gt;" style="text;html=1;align=center;verticalAlign=middle;whiteSpace=wrap;rounded=0;" vertex="1" parent="1">
          <mxGeometry x="465" y="500" width="180" height="30" as="geometry" />
        </mxCell>
        <mxCell id="QzJGNxjtanzAwtywDty2-108" value="" style="endArrow=classic;html=1;rounded=0;entryX=1;entryY=0.75;entryDx=0;entryDy=0;exitX=1;exitY=0.25;exitDx=0;exitDy=0;" edge="1" parent="1">
          <mxGeometry width="50" height="50" relative="1" as="geometry">
            <mxPoint x="705" y="130" as="sourcePoint" />
            <mxPoint x="705" y="150" as="targetPoint" />
            <Array as="points">
              <mxPoint x="750" y="130" />
              <mxPoint x="750" y="150" />
            </Array>
          </mxGeometry>
        </mxCell>
        <mxCell id="QzJGNxjtanzAwtywDty2-116" value="" style="endArrow=classic;html=1;rounded=0;exitX=0;exitY=0.25;exitDx=0;exitDy=0;entryX=0;entryY=0.75;entryDx=0;entryDy=0;" edge="1" parent="1" source="QzJGNxjtanzAwtywDty2-5" target="QzJGNxjtanzAwtywDty2-5">
          <mxGeometry width="50" height="50" relative="1" as="geometry">
            <mxPoint x="400" y="320" as="sourcePoint" />
            <mxPoint x="130" y="150" as="targetPoint" />
            <Array as="points">
              <mxPoint x="90" y="130" />
              <mxPoint x="90" y="150" />
            </Array>
          </mxGeometry>
        </mxCell>
        <mxCell id="QzJGNxjtanzAwtywDty2-117" value="" style="endArrow=classic;html=1;rounded=0;exitX=0;exitY=0.25;exitDx=0;exitDy=0;entryX=0;entryY=0.75;entryDx=0;entryDy=0;" edge="1" parent="1">
          <mxGeometry width="50" height="50" relative="1" as="geometry">
            <mxPoint x="135" y="330" as="sourcePoint" />
            <mxPoint x="135" y="350" as="targetPoint" />
            <Array as="points">
              <mxPoint x="90" y="330" />
              <mxPoint x="90" y="350" />
            </Array>
          </mxGeometry>
        </mxCell>
        <mxCell id="QzJGNxjtanzAwtywDty2-122" value="&lt;span style=&quot;font-size: 10px;&quot;&gt;Успешное создание Excel таблицы&lt;/span&gt;" style="text;html=1;align=center;verticalAlign=middle;whiteSpace=wrap;rounded=0;" vertex="1" parent="1">
          <mxGeometry x="430" y="740" width="260" height="30" as="geometry" />
        </mxCell>
        <mxCell id="QzJGNxjtanzAwtywDty2-124" value="&lt;font style=&quot;font-size: 8px;&quot;&gt;Проверка входных данных&lt;/font&gt;" style="text;html=1;align=center;verticalAlign=middle;whiteSpace=wrap;rounded=0;" vertex="1" parent="1">
          <mxGeometry x="750" y="125" width="90" height="30" as="geometry" />
        </mxCell>
        <mxCell id="QzJGNxjtanzAwtywDty2-125" value="&lt;font style=&quot;font-size: 8px;&quot;&gt;Проверка входных данных&lt;/font&gt;" style="text;html=1;align=center;verticalAlign=middle;whiteSpace=wrap;rounded=0;" vertex="1" parent="1">
          <mxGeometry y="120" width="90" height="30" as="geometry" />
        </mxCell>
        <mxCell id="QzJGNxjtanzAwtywDty2-126" value="&lt;font style=&quot;font-size: 8px;&quot;&gt;Проверка входных данных&lt;/font&gt;" style="text;html=1;align=center;verticalAlign=middle;whiteSpace=wrap;rounded=0;" vertex="1" parent="1">
          <mxGeometry y="325" width="90" height="30" as="geometry" />
        </mxCell>
        <mxCell id="QzJGNxjtanzAwtywDty2-128" value="" style="endArrow=classic;html=1;rounded=0;exitX=0;exitY=0.75;exitDx=0;exitDy=0;entryX=1;entryY=0.75;entryDx=0;entryDy=0;dashed=1;" edge="1" parent="1" source="QzJGNxjtanzAwtywDty2-10" target="QzJGNxjtanzAwtywDty2-5">
          <mxGeometry width="50" height="50" relative="1" as="geometry">
            <mxPoint x="500" y="320" as="sourcePoint" />
            <mxPoint x="210" y="210" as="targetPoint" />
            <Array as="points">
              <mxPoint x="380" y="170" />
              <mxPoint x="180" y="170" />
            </Array>
          </mxGeometry>
        </mxCell>
        <mxCell id="QzJGNxjtanzAwtywDty2-129" value="&lt;font style=&quot;font-size: 10px;&quot;&gt;Вывод сообщения об ошибке&lt;/font&gt;" style="text;html=1;align=center;verticalAlign=middle;whiteSpace=wrap;rounded=0;" vertex="1" parent="1">
          <mxGeometry x="175" y="160" width="210" height="30" as="geometry" />
        </mxCell>
        <mxCell id="QzJGNxjtanzAwtywDty2-130" value="" style="endArrow=classic;html=1;rounded=0;exitX=0;exitY=0.75;exitDx=0;exitDy=0;entryX=1;entryY=0.75;entryDx=0;entryDy=0;dashed=1;" edge="1" parent="1">
          <mxGeometry width="50" height="50" relative="1" as="geometry">
            <mxPoint x="415" y="350" as="sourcePoint" />
            <mxPoint x="145" y="350" as="targetPoint" />
            <Array as="points">
              <mxPoint x="380" y="370" />
              <mxPoint x="180" y="370" />
            </Array>
          </mxGeometry>
        </mxCell>
        <mxCell id="QzJGNxjtanzAwtywDty2-131" value="&lt;font style=&quot;font-size: 10px;&quot;&gt;Вывод сообщения об ошибке&lt;/font&gt;" style="text;html=1;align=center;verticalAlign=middle;whiteSpace=wrap;rounded=0;" vertex="1" parent="1">
          <mxGeometry x="175" y="360" width="210" height="30" as="geometry" />
        </mxCell>
        <mxCell id="QzJGNxjtanzAwtywDty2-132" value="" style="endArrow=classic;html=1;rounded=0;exitX=0;exitY=0.75;exitDx=0;exitDy=0;entryX=1;entryY=0.75;entryDx=0;entryDy=0;dashed=1;" edge="1" parent="1">
          <mxGeometry width="50" height="50" relative="1" as="geometry">
            <mxPoint x="425" y="150.00000000000045" as="sourcePoint" />
            <mxPoint x="695" y="150.00000000000045" as="targetPoint" />
            <Array as="points">
              <mxPoint x="460" y="170.00000000000045" />
              <mxPoint x="660" y="170.00000000000045" />
            </Array>
          </mxGeometry>
        </mxCell>
        <mxCell id="QzJGNxjtanzAwtywDty2-133" value="&lt;font style=&quot;font-size: 10px;&quot;&gt;Вывод сообщения об ошибке&lt;/font&gt;" style="text;html=1;align=center;verticalAlign=middle;whiteSpace=wrap;rounded=0;direction=west;" vertex="1" parent="1">
          <mxGeometry x="455" y="160" width="210" height="30" as="geometry" />
        </mxCell>
      </root>
    </mxGraphModel>
  </diagram>
</mxfile>
